<?xml version="1.0" encoding="iso-8859-1"?>
<!-- Generator: Adobe Illustrator 19.0.0, SVG Export Plug-In . SVG Version: 6.00 Build 0)  -->
<svg version="1.1" id="Capa_1" xmlns="http://www.w3.org/2000/svg" xmlns:xlink="http://www.w3.org/1999/xlink" x="0px" y="0px"
	 viewBox="0 0 490 490" style="enable-background:new 0 0 490 490;" xml:space="preserve">
<g>
	<path d="M467.031,122.5l-87.281-7.656l-7.656-84.219l-73.5,35.219L248.062,0l-47.469,67.375l-76.562-39.813l-4.594,87.281
		l-85.75,4.594l32.156,82.688L0,241.938l67.375,49l-33.688,71.969l84.219,9.187l4.594,85.75l78.094-36.75L252.656,490l45.938-68.906
		l71.969,35.219l6.125-85.75l84.219-1.531l-30.625-70.438L490,245l-64.313-52.063L467.031,122.5z M442.531,246.531l-32.156,29.094
		l-16.844,15.313l9.188,19.906l12.25,27.563h-38.281h-27.563l-1.531,27.563l-3.063,39.812l-30.625-15.312l-26.031-7.656
		l-15.313,22.969l-21.438,33.688l-26.031-33.688l-15.313-19.906l-22.969,10.719l-36.75,16.844l-1.531-39.813L147,347.594
		l-26.031-3.063l-41.344-7.656l15.313-32.156l10.719-22.969L85.75,266.438l-30.625-22.969l27.562-16.844l21.438-12.25l-9.187-24.5
		L78.094,147l42.875-3.063l27.562-1.531l1.531-27.562l1.531-38.281l33.687,18.375l24.5,12.25l15.313-21.438l22.969-33.688
		l24.5,32.156l15.313,19.906l22.969-10.719l35.219-16.844l3.063,39.813l3.063,26.031l26.031,1.531L418.031,147l-16.844,30.625
		l-13.781,22.969l19.906,16.844L442.531,246.531z"/>
	<path d="M245,142.406c-13.781,0-22.969,9.187-22.969,21.438c0,12.25,9.188,21.438,21.438,21.438
		c13.781,0,22.969-9.188,22.969-21.438C266.437,151.594,258.781,142.406,245,142.406z"/>
	<rect x="223.562" y="202.125" width="42.875" height="136.281"/>
</g>
<g>
</g>
<g>
</g>
<g>
</g>
<g>
</g>
<g>
</g>
<g>
</g>
<g>
</g>
<g>
</g>
<g>
</g>
<g>
</g>
<g>
</g>
<g>
</g>
<g>
</g>
<g>
</g>
<g>
</g>
</svg>
